<?xml version="1.0" encoding="UTF-8" standalone="no"?>
<svg
   xmlns:dc="http://purl.org/dc/elements/1.1/"
   xmlns:cc="http://creativecommons.org/ns#"
   xmlns:rdf="http://www.w3.org/1999/02/22-rdf-syntax-ns#"
   xmlns:svg="http://www.w3.org/2000/svg"
   xmlns="http://www.w3.org/2000/svg"
   xmlns:sodipodi="http://sodipodi.sourceforge.net/DTD/sodipodi-0.dtd"
   xmlns:inkscape="http://www.inkscape.org/namespaces/inkscape"
   width="100mm"
   height="100mm"
   viewBox="0 0 100 100"
   version="1.1"
   id="svg8"
   inkscape:version="1.0.2 (e86c870879, 2021-01-15)"
   sodipodi:docname="logo.svg"
   inkscape:export-filename="C:\Users\Renato\Desktop\logo.png"
   inkscape:export-xdpi="96"
   inkscape:export-ydpi="96">
  <defs
     id="defs2" />
  <sodipodi:namedview
     id="base"
     pagecolor="#ffffff"
     bordercolor="#666666"
     borderopacity="1.0"
     inkscape:pageopacity="0.0"
     inkscape:pageshadow="2"
     inkscape:zoom="0.64523495"
     inkscape:cx="1265.181"
     inkscape:cy="424.24201"
     inkscape:document-units="mm"
     inkscape:current-layer="layer1"
     inkscape:document-rotation="0"
     showgrid="false"
     inkscape:window-width="1366"
     inkscape:window-height="705"
     inkscape:window-x="-8"
     inkscape:window-y="-8"
     inkscape:window-maximized="1" />
  <metadata
     id="metadata5">
    <rdf:RDF>
      <cc:Work
         rdf:about="">
        <dc:format>image/svg+xml</dc:format>
        <dc:type
           rdf:resource="http://purl.org/dc/dcmitype/StillImage" />
        <dc:title />
      </cc:Work>
    </rdf:RDF>
  </metadata>
  <g
     inkscape:label="Layer 1"
     inkscape:groupmode="layer"
     id="layer1">
    <path
       style="fill:#008000;stroke-width:0.429153"
       d="m 38.859254,74.871297 c -1.534231,-0.175601 -4.044773,-0.634688 -5.578987,-1.020191 -1.534231,-0.3855 -4.720692,-1.11734 -7.081038,-1.626303 -7.024998,-1.514812 -13.687853,-4.525654 -15.131852,-6.837866 -0.412554,-0.660614 -0.275885,-0.671441 1.763322,-0.139671 5.590374,1.457796 22.021655,2.702884 35.684497,2.704018 13.364895,0.0013 30.228745,-1.282962 35.753721,-2.722411 l 2.279754,-0.593952 -1.20688,1.269804 c -2.657112,2.795685 -8.47703,5.146633 -17.266729,6.974883 -2.732756,0.568413 -5.74112,1.245514 -6.685268,1.504671 -2.086926,0.572842 -18.652199,0.930924 -22.53054,0.487024 z m 0.539752,-8.50248 -4.824662,-0.15722 -1.690282,-2.23903 C 29.375617,59.32512 26.91354,52.552652 26.019836,45.091009 c -0.594202,-4.96096 -0.847672,-10.846763 -0.491903,-11.4224 0.783684,-1.268024 6.215832,-1.841016 19.554047,-2.062588 13.093746,-0.217511 20.202713,0.131998 24.452977,1.202231 l 1.93994,0.488484 v 2.523969 2.523977 h 2.768376 c 6.581544,0 9.689696,1.71995 10.543908,5.834643 0.88556,4.265721 -0.372107,8.065267 -3.974205,12.006543 -2.575633,2.818155 -6.525633,4.864834 -12.342146,6.395032 -3.237214,0.851642 -4.297951,1.331114 -5.149838,2.327818 l -1.072886,1.255252 -9.01222,0.181035 c -4.956723,0.09957 -11.18331,0.110279 -13.83688,0.02381 z m 34.418007,-7.820383 c 5.869536,-2.65975 9.53129,-10.105771 7.291232,-14.826363 -1.003594,-2.114927 -2.916854,-2.956866 -6.182468,-2.720656 -3.078047,0.222648 -3.880027,0.891712 -3.880027,3.236953 0,2.792681 -1.854542,10.130915 -3.625633,14.346274 -0.597593,1.422308 3.226005,1.400666 6.396896,-0.03622 z M 50.870009,54.248618 c -0.0033,-1.07605 -0.399886,-3.211727 -0.881879,-4.745951 -0.635499,-2.022821 -0.804396,-3.379248 -0.614543,-4.935262 l 0.261823,-2.145768 -1.477508,1.550438 c -3.015307,3.16415 -3.002851,9.337303 0.02498,12.365112 1.436326,1.436326 1.524725,1.46516 2.096122,0.683727 0.328113,-0.448715 0.594072,-1.696245 0.591023,-2.772296 z m 4.69247,-1.164915 c 0.9392,-3.382385 0.307838,-6.612605 -1.750735,-8.95718 -1.517248,-1.728051 -2.301841,-1.88249 -2.665703,-0.524713 -0.45609,1.701863 -0.2923,3.335498 0.643219,6.415498 0.678189,2.232755 0.850461,3.632787 0.668295,5.431038 l -0.245441,2.42281 1.446124,-1.568803 c 0.795362,-0.862839 1.652263,-2.311232 1.904241,-3.21865 z m -9.195812,2.963552 c -0.17005,-0.41306 -0.404689,-1.082582 -0.521407,-1.487823 -0.116784,-0.405245 -0.590294,-0.856799 -1.052401,-1.003464 -0.462091,-0.14666 -1.536695,-0.877253 -2.388001,-1.623537 l -1.547839,-1.35688 0.296209,1.48651 c 0.441184,2.214181 2.961572,4.616583 4.940262,4.709009 0.389214,0.01819 0.479819,-0.221869 0.273177,-0.723815 z m -1.35706,-4.935263 C 44.672232,49.339653 44.770881,49.418176 43.08475,49.579687 l -1.436001,0.137562 1.361746,1.394748 c 0.748941,0.767113 1.564871,1.394749 1.813166,1.394749 0.27767,0 0.349232,-0.536863 0.185946,-1.394749 z m 11.897036,-16.19222 c 4.143213,-0.220194 8.391821,-0.538636 9.441366,-0.707648 1.88695,-0.303871 1.893876,-0.311179 0.620787,-0.65539 -0.708115,-0.191449 -5.155255,-0.565625 -9.882565,-0.831498 -8.569689,-0.481978 -23.105943,-0.03012 -26.810048,0.833416 l -1.502034,0.350159 2.360346,0.349107 c 2.163986,0.320067 10.903256,0.865663 16.093241,1.004714 1.180181,0.03163 5.535678,-0.122672 9.678907,-0.34286 z M 26.842967,65.759754 C 17.294304,64.995896 9.6768227,63.478636 9.6768227,62.34057 c 0,-1.247708 3.7034243,-2.276573 11.4609003,-3.184014 7.276602,-0.851186 6.83657,-0.917091 7.893642,1.182241 0.505122,1.003145 1.570888,2.741217 2.368359,3.862379 1.163231,1.635366 1.301587,2.026668 0.699648,1.978763 -0.412668,-0.03283 -2.778042,-0.221925 -5.256405,-0.420185 z m 37.943546,-0.338066 c 0.380634,-0.42059 1.799833,-1.0089 3.153778,-1.307359 3.58836,-0.790999 7.304435,-2.134064 9.526847,-3.443188 l 1.947094,-1.146954 3.349812,0.714725 c 1.842397,0.393099 3.651067,1.015974 4.019257,1.384165 1.81164,1.811648 -4.132619,3.088595 -20.393363,4.380891 -2.17951,0.17321 -2.260512,0.14379 -1.603425,-0.58228 z"
       id="path24-1"
       sodipodi:nodetypes="ssssscscsssssccssssscccssssscsscsssssssssscssssscsssscscscsscssssscssssssssscssssssssssssscssss" />
    <path
       style="fill:#ffffff;stroke-width:0.070156"
       d="m 305.26684,55.318971 -5.84048,-2.92489 v -6.9809 -6.9809 l 5.85816,-2.92883 5.85815,-2.92883 5.89296,2.94665 5.89296,2.94664 v 6.96309 6.96308 l -5.85813,2.92882 c -3.22197,1.61084 -5.88176,2.92704 -5.91064,2.92489 -0.0288,-0.002 -2.68072,-1.32013 -5.89298,-2.92882 z m 5.24415,-4.644 v -5.893 l -4.91072,-2.45555 c -2.70088,-1.35056 -4.92658,-2.45556 -4.94598,-2.45556 -0.0194,0 -0.0352,2.64411 -0.0352,5.87579 v 5.87579 l 4.92845,2.46884 c 2.71064,1.35786 4.93634,2.4706 4.94599,2.47276 0.01,0.002 0.0175,-2.64792 0.0175,-5.88907 z m -2.22592,4.1735 c -0.65591,-0.33215 -1.13968,-1.14346 -1.14088,-1.91332 -7.5e-4,-0.52769 0.11528,-0.83532 0.40828,-1.08186 0.4741,-0.39893 1.13344,-0.30904 1.72957,0.23579 0.89115,0.81445 1.02353,2.19381 0.26445,2.75534 -0.30079,0.22252 -0.82669,0.22421 -1.26142,0.004 z m -5.78953,-2.94073 c -0.76748,-0.27389 -1.38544,-1.21401 -1.38544,-2.10768 0,-0.3459 0.24452,-0.85414 0.50061,-1.04054 0.23456,-0.17073 0.74246,-0.22987 1.06367,-0.12387 0.37626,0.12418 0.87198,0.60344 1.12092,1.08371 0.19112,0.36872 0.2228,0.50363 0.22441,0.95551 0.002,0.64735 -0.16471,0.96763 -0.61926,1.18767 -0.34544,0.16723 -0.53625,0.17676 -0.90491,0.0452 z m 2.96423,-2.02578 c -0.38198,-0.11983 -1.00149,-0.78185 -1.18124,-1.2623 -0.5204,-1.39087 0.38058,-2.49218 1.56483,-1.91278 1.27829,0.62541 1.63552,2.60717 0.56352,3.12611 -0.31754,0.15372 -0.57136,0.16685 -0.94711,0.049 z m 2.91146,-2.07578 c -0.40346,-0.18622 -0.79449,-0.6076 -1.03442,-1.11469 -0.1851,-0.3912 -0.20549,-0.49878 -0.18215,-0.96109 0.0282,-0.55753 0.12998,-0.76822 0.50718,-1.04952 0.24009,-0.17905 0.88501,-0.19219 1.20049,-0.0244 0.31735,0.16874 0.72992,0.61085 0.92168,0.98768 0.70488,1.38517 -0.17584,2.733 -1.41278,2.16206 z m -5.86434,-2.98028 c -0.76649,-0.27399 -1.39679,-1.22684 -1.39679,-2.11159 0,-0.37854 0.25583,-0.87324 0.55408,-1.07145 0.87059,-0.57854 2.23101,0.4413 2.37218,1.77832 0.0697,0.66 -0.28683,1.28335 -0.81847,1.43105 -0.31509,0.0875 -0.4014,0.0843 -0.711,-0.0263 z m 14.24817,9.28651 4.91072,-2.45555 v -5.893 c 0,-3.24115 -0.0159,-5.893 -0.0353,-5.893 -0.0194,0 -2.24509,1.105 -4.94599,2.45556 l -4.91071,2.45555 v 5.893 c 0,3.24115 0.0159,5.893 0.0352,5.893 0.0194,0 2.2451,-1.105 4.94599,-2.45556 z m -3.93609,0.75371 c -0.13111,-0.0871 -0.31171,-0.30023 -0.40133,-0.47355 -0.30934,-0.5982 -0.10457,-1.53438 0.48165,-2.20204 0.24969,-0.28439 0.85023,-0.60363 1.13552,-0.60363 0.69896,0 1.24554,0.70566 1.15284,1.48834 -0.15957,1.34737 -1.50516,2.36473 -2.36868,1.79088 z m 3.16562,-4.9711 c -0.25027,-0.0999 -0.41748,-0.26873 -0.57851,-0.58423 -0.11456,-0.22447 -0.13507,-0.37006 -0.10872,-0.77172 0.0884,-1.34809 1.43823,-2.42791 2.30487,-1.84388 0.52744,0.35545 0.70493,0.91205 0.51958,1.62946 -0.29023,1.12337 -1.33447,1.89065 -2.13722,1.57037 z m 3.09734,-5.02023 c -0.0899,-0.0187 -0.28389,-0.15451 -0.43107,-0.3017 -0.97798,-0.97798 0.10018,-3.19065 1.49821,-3.07471 0.44467,0.0369 0.69357,0.2021 0.88429,0.587 0.51157,1.03246 -0.37568,2.66457 -1.51843,2.79316 -0.14824,0.0167 -0.34308,0.015 -0.433,-0.004 z m -3.02866,-3.59598 4.87581,-2.44292 -4.89334,-2.44636 -4.89334,-2.44637 -4.89334,2.44637 -4.89335,2.44636 4.8758,2.44292 c 2.68169,1.34361 4.89159,2.44292 4.91089,2.44292 0.0193,0 2.22918,-1.09931 4.91087,-2.44292 z m -5.448,-1.27054 c -1.38935,-0.27487 -1.71916,-1.54344 -0.55525,-2.13566 0.37679,-0.19172 0.47922,-0.21166 1.08742,-0.21166 0.71128,0 0.99508,0.0746 1.39061,0.36562 0.66166,0.4868 0.55331,1.39587 -0.21043,1.76559 -0.52978,0.25646 -1.12727,0.33187 -1.71235,0.21611 z m 13.58612,8.2813 v -0.6314 h 0.73654 0.73654 l 2.45555,-4.91072 c 1.35056,-2.70089 2.45556,-4.92659 2.45556,-4.94599 0,-0.0194 -1.41277,-0.0362 -3.13948,-0.0373 l -3.13947,-0.002 -1.22773,-0.62645 -1.22773,-0.62645 4.36714,-0.003 4.36714,-0.003 -2.4727,-4.94599 -2.4727,-4.94599 h -5.87579 c -3.23168,0 -5.87578,0.0159 -5.87578,0.0353 0,0.0194 0.86818,1.77146 1.92928,3.8934 1.06111,2.12194 1.92929,3.87381 1.92929,3.89305 0,0.0192 -0.39797,-0.16218 -0.88437,-0.40315 l -0.88437,-0.43811 -1.56248,-3.12194 -1.56248,-3.12194 -1.00258,2.00661 -1.00257,2.00662 -0.86588,0.4313 c -0.47623,0.23722 -0.88129,0.43131 -0.90014,0.43131 -0.0189,0 0.7311,-1.53116 1.66657,-3.40257 l 1.70086,-3.40256 h 6.98104 6.98105 l 2.93738,5.87529 2.93739,5.87528 -2.93725,5.87584 -2.93724,5.87583 h -1.1053 -1.10529 z m 0,-2.55012 v -1.43029 l 0.28751,-0.0386 c 0.98754,-0.13246 1.72035,0.61807 1.4581,1.49336 -0.16257,0.54263 -0.92855,1.21378 -1.55268,1.36045 l -0.19293,0.0453 z m 2.20992,-4.61582 c -0.44455,-0.16395 -0.8068,-0.65624 -0.8068,-1.09643 0,-0.28528 0.31924,-0.88583 0.60363,-1.13553 0.66767,-0.58621 1.60384,-0.79098 2.20204,-0.48165 1.06661,0.55155 0.73482,1.94813 -0.60899,2.56334 -0.43089,0.19727 -1.07393,0.26679 -1.38988,0.15027 z m 1.01246,-5.11371 c -0.47733,-0.0782 -0.98872,-0.36761 -1.34001,-0.75832 -0.52201,-0.5806 -0.60442,-1.2414 -0.21286,-1.70674 0.67633,-0.80378 2.44093,-0.3737 2.99035,0.72883 0.51901,1.04153 -0.22114,1.93551 -1.43748,1.73623 z m -5.20656,-3.01691 c -0.95895,-0.23973 -1.73024,-1.11438 -1.64552,-1.86605 0.0457,-0.40613 0.22143,-0.6491 0.61443,-0.84992 0.673,-0.34388 1.58826,-0.1248 2.24578,0.53758 0.55593,0.56003 0.68261,1.03949 0.41871,1.58465 -0.24217,0.50025 -0.96147,0.76171 -1.6334,0.59374 z m -5.29323,-3.08115 c -1.46079,-0.52575 -1.9252,-2.07936 -0.79263,-2.65152 0.36474,-0.18425 0.7463,-0.20013 1.24566,-0.0518 0.72656,0.21577 1.41091,0.87512 1.52181,1.46622 0.10037,0.53506 -0.22425,1.09082 -0.74817,1.28086 -0.33758,0.12245 -0.81196,0.10554 -1.22667,-0.0437 z"
       id="path36" />
    <path
       style="fill:#ffffff;fill-opacity:1;stroke:none;stroke-width:0.264583px;stroke-linecap:butt;stroke-linejoin:miter;stroke-opacity:1"
       d="m 189.75699,187.02054 0.0544,3.87813 c 0,0 -0.86986,-0.50742 -0.86986,-0.68864 0,-0.18122 0.8155,-3.18949 0.8155,-3.18949 z"
       id="path933"
       inkscape:transform-center-x="0.2355879"
       inkscape:transform-center-y="0.21746575" />
    <path
       style="fill:#008000;stroke-width:0.607047"
       d="m 211.2291,107.38362 c -2.1702,-0.24839 -5.72142,-0.89778 -7.8916,-1.44308 -2.1702,-0.5453 -6.67754,-1.58051 -10.01629,-2.30044 -9.93703,-2.14275 -19.36179,-6.401653 -21.40436,-9.672331 -0.58358,-0.934454 -0.39025,-0.949769 2.49426,-0.197568 7.90771,2.062087 31.15014,3.823293 50.47656,3.824897 18.90495,0.0018 42.75926,-1.81478 50.57448,-3.850914 l 3.22475,-0.84016 -1.70716,1.796168 c -3.75854,3.954558 -11.99095,7.280038 -24.42419,9.866138 -3.86554,0.80403 -8.12095,1.76181 -9.45647,2.12839 -2.952,0.81029 -26.38398,1.31682 -31.86998,0.68891 z m 0.7635,-12.026959 -6.8246,-0.222391 -2.39094,-3.167161 c -4.96278,-6.573923 -8.44545,-16.153737 -9.7096,-26.708406 -0.84053,-7.017395 -1.19907,-15.343001 -0.69582,-16.157253 1.10854,-1.79365 8.79243,-2.604161 27.65966,-2.917579 18.52142,-0.307675 28.57721,0.186714 34.58931,1.700584 l 2.74409,0.690972 v 3.570213 3.570225 h 3.91594 c 9.30974,0 13.7063,2.432909 14.9146,8.253239 1.25264,6.033963 -0.52635,11.408509 -5.6216,16.983537 -3.64329,3.986346 -9.23066,6.881422 -17.45826,9.045923 -4.57911,1.204667 -6.07955,1.882892 -7.28457,3.292753 l -1.51762,1.775583 -12.74799,0.256078 c -7.01141,0.140845 -15.81906,0.155993 -19.5726,0.03368 z m 48.68509,-11.062115 c 8.30259,-3.762279 13.48223,-14.29485 10.31361,-20.972238 -1.41961,-2.991614 -4.12596,-4.182557 -8.74525,-3.848432 -4.35397,0.314941 -5.48839,1.261347 -5.48839,4.578746 0,3.950313 -2.62329,14.330417 -5.12854,20.293141 -0.8453,2.011888 4.56325,1.981275 9.04857,-0.05123 z M 236.75756,50.871249 c 5.86068,-0.311469 11.87042,-0.761913 13.35504,-1.000984 2.66913,-0.429833 2.67894,-0.44017 0.87812,-0.927065 -1.00165,-0.270809 -7.29224,-0.80009 -13.97913,-1.176173 -12.12203,-0.68177 -32.68389,-0.04261 -37.92344,1.178886 l -2.12466,0.495308 3.33876,0.49382 c 3.06101,0.452742 15.42291,1.224501 22.76428,1.421192 1.66939,0.04474 7.83033,-0.173523 13.69103,-0.484984 z m -42.52577,43.623878 c -13.50682,-1.080495 -24.28192,-3.226695 -24.28192,-4.836516 0,-1.764912 5.23859,-3.220266 16.21171,-4.503862 10.29292,-1.204023 9.67049,-1.297247 11.16574,1.672307 0.71452,1.418972 2.22206,3.877516 3.3501,5.463426 1.64542,2.313264 1.84113,2.866769 0.98967,2.799007 -0.58373,-0.04644 -3.9296,-0.313918 -7.4353,-0.594362 z m 53.67203,-0.478202 c 0.53842,-0.594935 2.54591,-1.427113 4.46109,-1.84929 5.07582,-1.118887 10.33231,-3.018684 13.47596,-4.87047 l 2.7542,-1.622394 4.7384,1.010996 c 2.6061,0.556047 5.16451,1.437119 5.68532,1.957934 2.56261,2.562618 -5.84568,4.36889 -28.84688,6.196873 -3.08297,0.245009 -3.19755,0.203394 -2.26809,-0.823649 z"
       id="path24-1-0"
       sodipodi:nodetypes="ssssscscsssssccssssscccssssscsscsssssssssssscssssssssssssscssss" />
    <path
       style="fill:#ffffff;stroke-width:0.0571437"
       d="m 217.7252,84.011758 -4.75721,-2.382392 v -5.686108 -5.686107 l 4.77161,-2.385601 4.7716,-2.385601 4.79996,2.400115 4.79995,2.400108 v 5.671601 5.671593 l -4.77158,2.385593 c -2.62437,1.312067 -4.79084,2.384143 -4.81436,2.382392 -0.0235,-0.0016 -2.18351,-1.075277 -4.79997,-2.385593 z m 4.27148,-3.782647 v -4.799988 l -3.99989,-2.000103 c -2.19993,-1.100063 -4.01282,-2.000112 -4.02862,-2.000112 -0.0158,0 -0.0287,2.15369 -0.0287,4.78597 v 4.785969 l 4.01434,2.010929 c 2.20788,1.106009 4.02076,2.012362 4.02862,2.014121 0.008,0.0016 0.0143,-2.156793 0.0143,-4.796786 z m -1.81306,3.399414 c -0.53426,-0.270544 -0.9283,-0.931375 -0.92928,-1.558445 -6.1e-4,-0.429816 0.0939,-0.680387 0.33256,-0.8812 0.38616,-0.324938 0.92321,-0.25172 1.40877,0.192056 0.72587,0.663389 0.83369,1.78691 0.2154,2.24429 -0.245,0.181248 -0.67335,0.182624 -1.02745,0.0033 z m -4.71571,-2.395294 c -0.62513,-0.22309 -1.12847,-0.98884 -1.12847,-1.716755 0,-0.281744 0.19916,-0.695717 0.40775,-0.847545 0.19106,-0.139063 0.60476,-0.187234 0.86639,-0.100895 0.30647,0.101148 0.71025,0.491516 0.91301,0.882708 0.15568,0.300331 0.18148,0.410218 0.18279,0.778285 0.002,0.527282 -0.13416,0.788158 -0.5044,0.967385 -0.28137,0.136213 -0.43679,0.143975 -0.73707,0.03682 z m 2.41444,-1.650046 c -0.31114,-0.0976 -0.81574,-0.636835 -0.96215,-1.028173 -0.42388,-1.132896 0.30999,-2.029939 1.27459,-1.558004 1.0412,0.509411 1.33217,2.123601 0.459,2.54629 -0.25865,0.125209 -0.46539,0.135903 -0.77144,0.03991 z m 2.37145,-1.690772 c -0.32863,-0.15168 -0.64713,-0.494904 -0.84256,-0.907941 -0.15077,-0.318642 -0.16738,-0.406268 -0.14837,-0.78283 0.023,-0.454122 0.10587,-0.625734 0.41311,-0.854859 0.19556,-0.145841 0.72086,-0.156543 0.97783,-0.01987 0.25849,0.137443 0.59454,0.497552 0.75073,0.804489 0.57414,1.128254 -0.14323,2.226093 -1.15074,1.761049 z m -4.77665,-2.427508 c -0.62432,-0.223171 -1.13771,-0.99929 -1.13771,-1.71994 0,-0.30833 0.20838,-0.711274 0.45131,-0.872721 0.70911,-0.471235 1.81721,0.359449 1.93219,1.448483 0.0568,0.537586 -0.23363,1.045319 -0.66666,1.165624 -0.25665,0.07127 -0.32695,0.06866 -0.57913,-0.02142 z m 11.60548,7.564081 3.99989,-2.000103 v -4.799987 c 0,-2.639994 -0.0129,-4.799988 -0.0288,-4.799988 -0.0158,0 -1.82868,0.900049 -4.02863,2.000112 l -3.99988,2.000103 v 4.799988 c 0,2.639993 0.0129,4.799987 0.0287,4.799987 0.0158,0 1.82868,-0.900049 4.02862,-2.000112 z m -3.20604,0.613915 c -0.1068,-0.07094 -0.2539,-0.244544 -0.3269,-0.385718 -0.25196,-0.487248 -0.0852,-1.249788 0.39232,-1.793613 0.20338,-0.231642 0.69253,-0.491671 0.92491,-0.491671 0.56932,0 1.01452,0.574777 0.93901,1.212288 -0.12997,1.097465 -1.22599,1.926128 -1.92934,1.458714 z m 2.57847,-4.049078 c -0.20385,-0.08137 -0.34005,-0.218887 -0.47121,-0.475869 -0.0933,-0.182836 -0.11002,-0.301423 -0.0886,-0.628584 0.072,-1.098052 1.17148,-1.97759 1.87738,-1.501884 0.42961,0.289522 0.57418,0.742886 0.42321,1.327233 -0.2364,0.915012 -1.08696,1.539979 -1.74082,1.279104 z m 2.52286,-4.089096 c -0.0732,-0.01523 -0.23124,-0.125852 -0.35112,-0.245742 -0.79659,-0.796587 0.0816,-2.598859 1.22033,-2.504423 0.36219,0.03005 0.56493,0.164615 0.72027,0.478125 0.41669,0.840963 -0.306,2.170355 -1.2368,2.275095 -0.12074,0.0136 -0.27944,0.01222 -0.35268,-0.0033 z m -2.46692,-2.92901 3.97146,-1.989816 -3.98574,-1.992618 -3.98574,-1.992626 -3.98574,1.992626 -3.98575,1.992618 3.97146,1.989816 c 2.1843,1.094402 3.98431,1.989816 4.00003,1.989816 0.0157,0 1.81572,-0.895414 4.00002,-1.989816 z m -4.43752,-1.034885 c -1.13166,-0.223888 -1.4003,-1.257168 -0.45227,-1.739546 0.30691,-0.15616 0.39034,-0.172402 0.88573,-0.172402 0.57936,0 0.81052,0.06076 1.13269,0.297806 0.53893,0.39651 0.45068,1.136969 -0.1714,1.438115 -0.43152,0.208893 -0.91819,0.270316 -1.39475,0.176027 z m 11.06621,6.745314 v -0.51429 h 0.59993 0.59993 l 2.0001,-3.999897 c 1.10007,-2.199939 2.00011,-4.012824 2.00011,-4.028626 0,-0.0158 -1.15073,-0.02949 -2.55718,-0.03038 l -2.55717,-0.0016 -1.00001,-0.510258 -1.00002,-0.510258 3.55714,-0.0024 3.55714,-0.0024 -2.01407,-4.028625 -2.01408,-4.028626 h -4.78597 c -2.63228,0 -4.78596,0.01295 -4.78596,0.02875 0,0.0158 0.70716,1.442896 1.57145,3.171266 0.8643,1.72837 1.57145,3.15531 1.57145,3.170981 0,0.01564 -0.32416,-0.132099 -0.72034,-0.328375 l -0.72034,-0.356851 -1.27268,-2.542894 -1.27267,-2.542893 -0.81663,1.634431 -0.81662,1.634439 -0.70528,0.351304 c -0.3879,0.193221 -0.71783,0.351312 -0.73318,0.351312 -0.0154,0 0.5955,-1.247166 1.35746,-2.771473 l 1.38539,-2.771466 h 5.68622 5.68623 l 2.39257,4.785563 2.39257,4.785554 -2.39246,4.78601 -2.39245,4.786002 h -0.90029 -0.90029 z m 0,-2.077133 v -1.165005 l 0.23419,-0.03144 c 0.80437,-0.107892 1.40126,0.503432 1.18765,1.216376 -0.13242,0.441985 -0.75632,0.988653 -1.26469,1.108119 l -0.15715,0.0369 z m 1.80003,-3.759694 c -0.36209,-0.133541 -0.65715,-0.534523 -0.65715,-0.893068 0,-0.232368 0.26002,-0.72153 0.49167,-0.924916 0.54383,-0.477482 1.30636,-0.644272 1.79361,-0.392316 0.86878,0.449251 0.59853,1.586798 -0.49604,2.087901 -0.35097,0.160681 -0.87474,0.217307 -1.13209,0.122399 z m 0.82468,-4.165238 c -0.3888,-0.06369 -0.80534,-0.299427 -1.09147,-0.617669 -0.42519,-0.472912 -0.49232,-1.01115 -0.17338,-1.39018 0.55088,-0.654698 1.98819,-0.304388 2.43571,0.593649 0.42274,0.848351 -0.18013,1.576519 -1.17086,1.4142 z m -4.24087,-2.457344 c -0.78109,-0.195266 -1.40932,-0.907689 -1.34031,-1.519942 0.0372,-0.330802 0.18036,-0.528707 0.50046,-0.69228 0.54818,-0.280098 1.29368,-0.101652 1.82924,0.437872 0.45282,0.456158 0.55601,0.846689 0.34105,1.290735 -0.19725,0.407465 -0.78314,0.620431 -1.33044,0.483615 z m -4.31146,-2.509669 c -1.18985,-0.428236 -1.56812,-1.693688 -0.64562,-2.159726 0.29709,-0.150076 0.60788,-0.16301 1.01462,-0.04219 0.5918,0.17575 1.14922,0.712806 1.23955,1.194271 0.0818,0.435819 -0.18265,0.888498 -0.6094,1.04329 -0.27497,0.09974 -0.66136,0.08597 -0.99915,-0.03559 z"
       id="path36-6" />
    <path
       style="fill:#008000;stroke-width:0.607047"
       d="m 211.9626,185.77311 c -2.1702,-0.24839 -5.72142,-0.89778 -7.8916,-1.44308 -2.1702,-0.5453 -6.67754,-1.58051 -10.01629,-2.30044 -9.93703,-2.14275 -19.36179,-6.40165 -21.40436,-9.67233 -0.58358,-0.93445 -0.39025,-0.94977 2.49426,-0.19757 7.90771,2.06209 31.15014,3.8233 50.47656,3.8249 18.90495,0.002 42.75926,-1.81478 50.57448,-3.85091 l 3.22475,-0.84016 -1.70716,1.79616 c -3.75854,3.95456 -11.99095,7.28004 -24.42419,9.86614 -3.86554,0.80403 -8.12095,1.76181 -9.45647,2.12839 -2.952,0.81029 -26.38398,1.31682 -31.86998,0.68891 z m 0.7635,-12.02696 -6.8246,-0.22239 -2.39094,-3.16716 c -4.96278,-6.57392 -8.44545,-16.15374 -9.7096,-26.7084 -0.84053,-7.0174 -1.19907,-15.34301 -0.69582,-16.15726 1.10854,-1.79365 8.79243,-2.60416 27.65966,-2.91758 18.52142,-0.30767 28.57721,0.18671 34.58931,1.70058 l 2.74409,0.69098 v 3.57021 3.57023 h 3.91594 c 9.30974,0 13.7063,2.43291 14.9146,8.25324 1.25264,6.03396 -0.52635,11.40851 -5.6216,16.98353 -3.64329,3.98635 -9.23066,6.88142 -17.45826,9.04593 -4.57911,1.20466 -6.07955,1.88289 -7.28457,3.29275 l -1.51762,1.77558 -12.74799,0.25608 c -7.01141,0.14084 -15.81906,0.15599 -19.5726,0.0337 z m 48.68509,-11.06211 c 8.30259,-3.76228 13.48223,-14.29485 10.31361,-20.97224 -1.41961,-2.99161 -4.12596,-4.18256 -8.74525,-3.84843 -4.35397,0.31494 -5.48839,1.26134 -5.48839,4.57874 0,3.95032 -2.62329,14.33042 -5.12854,20.29314 -0.8453,2.01189 4.56325,1.98128 9.04857,-0.0512 z m -23.92013,-33.4233 c 5.86068,-0.31147 11.87042,-0.76191 13.35504,-1.00099 2.66913,-0.42983 2.67894,-0.44017 0.87812,-0.92706 -1.00165,-0.27081 -7.29224,-0.80009 -13.97913,-1.17617 -12.12203,-0.68177 -32.68389,-0.0426 -37.92344,1.17888 l -2.12466,0.49531 3.33876,0.49382 c 3.06101,0.45274 15.42291,1.2245 22.76428,1.42119 1.66939,0.0447 7.83033,-0.17352 13.69103,-0.48498 z m -42.52577,43.62388 c -13.50682,-1.0805 -24.28192,-3.2267 -24.28192,-4.83652 0,-1.76491 5.23859,-3.22026 16.21171,-4.50386 10.29292,-1.20402 9.67049,-1.29725 11.16574,1.67231 0.71452,1.41897 2.22206,3.87751 3.3501,5.46342 1.64542,2.31327 1.84113,2.86677 0.98967,2.79901 -0.58373,-0.0464 -3.9296,-0.31392 -7.4353,-0.59436 z m 53.67203,-0.4782 c 0.53842,-0.59494 2.54591,-1.42712 4.46109,-1.84929 5.07582,-1.11889 10.33231,-3.01869 13.47596,-4.87047 l 2.7542,-1.6224 4.7384,1.011 c 2.6061,0.55605 5.16451,1.43712 5.68532,1.95793 2.56261,2.56262 -5.84568,4.36889 -28.84688,6.19688 -3.08297,0.245 -3.19755,0.20339 -2.26809,-0.82365 z"
       id="path24-1-0-6"
       sodipodi:nodetypes="ssssscscsssssccssssscccssssscsscsssssssssssscssssssssssssscssss" />
    <path
       style="fill:#ffffff;stroke-width:0.150868"
       d="m 221.63075,163.13172 c -0.1549,-0.0445 -1.77011,-0.92884 -3.58937,-1.96508 -2.7831,-1.58523 -3.37255,-1.98194 -3.71638,-2.50114 l -0.40865,-0.61707 -0.0477,-3.8586 c -0.0293,-2.37481 0.0127,-4.06331 0.10919,-4.39093 0.25898,-0.87903 0.99733,-1.39333 4.23821,-2.95213 3.06622,-1.47479 3.10253,-1.48759 4.22432,-1.48849 1.12279,-0.001 1.15536,0.0105 4.22432,1.48461 1.70105,0.81702 3.28557,1.66457 3.52117,1.88344 0.83589,0.77654 0.85403,0.88587 0.85403,5.14883 0,3.56471 -0.027,3.98889 -0.28569,4.49583 -0.15713,0.30786 -0.41172,0.67315 -0.56576,0.81175 -0.15404,0.1386 -1.73468,1.07823 -3.51254,2.08807 -2.75961,1.56749 -3.34446,1.84383 -3.99802,1.889 -0.42105,0.0291 -0.89229,0.0165 -1.04719,-0.0281 z m 1.14322,-0.69329 c 0.0175,-0.0207 0.0684,-1.96292 0.11315,-4.31595 l 0.0814,-4.27822 3.38412,-1.86463 c 1.86126,-1.02555 3.48822,-1.96874 3.61546,-2.09598 0.20466,-0.20466 0.20548,-0.25719 0.007,-0.45551 -0.19832,-0.19831 -0.64735,0.008 -3.89329,1.7908 l -3.66912,2.01498 -3.62363,-2.02688 c -1.993,-1.11478 -3.718,-1.99067 -3.83334,-1.94641 -0.37634,0.14442 -0.22127,0.53161 0.35605,0.88899 0.31117,0.19263 1.94055,1.11641 3.62085,2.05286 l 3.05509,1.70264 v 4.04687 c 0,2.22578 0.0412,4.15426 0.0916,4.28552 0.0751,0.19565 0.57666,0.34074 0.69457,0.20092 z m -1.62339,-2.83123 c -0.007,-0.69455 -0.0661,-0.84238 -0.49271,-1.22355 -0.58321,-0.52111 -0.83933,-0.54298 -1.15083,-0.0983 -0.29737,0.42457 -0.29546,0.71406 0.01,1.47684 0.30466,0.7614 0.89407,1.12848 1.33953,0.83425 0.23992,-0.15846 0.30021,-0.36117 0.29427,-0.98928 z m 3.93386,0.66298 c 0.47866,-0.51647 0.63709,-1.351 0.35268,-1.85769 -0.30099,-0.53626 -0.63032,-0.55048 -1.18896,-0.0513 -0.37205,0.33243 -0.49754,0.58782 -0.55967,1.13902 -0.0919,0.81523 0.10754,1.16555 0.66347,1.16555 0.20125,0 0.53087,-0.17799 0.73248,-0.39554 z m -7.95459,-1.89766 c 0.0996,-0.0996 0.18104,-0.4424 0.18104,-0.76184 0,-1.37998 -1.15482,-2.3022 -1.74842,-1.39625 -0.65625,1.00157 0.76585,2.95962 1.56738,2.15809 z m 11.75278,-0.15841 c 0.70154,-0.77023 0.834,-1.51035 0.37234,-2.08047 -0.78281,-0.96673 -2.15953,0.94964 -1.52883,2.12811 0.20997,0.39232 0.77704,0.36896 1.15649,-0.0476 z m -7.88623,-2.00979 c 0.64028,-0.64028 -0.0177,-2.36088 -0.93707,-2.4504 -0.41308,-0.0402 -0.50961,0.0159 -0.64638,0.3756 -0.22909,0.60254 -0.0376,1.38216 0.4622,1.88198 0.48635,0.48635 0.77763,0.53644 1.12125,0.19282 z m 4.00931,-0.19282 c 0.5023,-0.50232 0.71757,-1.38614 0.46996,-1.92958 -0.25865,-0.56769 -1.02775,-0.44749 -1.48402,0.23192 -0.58146,0.86582 -0.36973,2.12756 0.35702,2.12756 0.12492,0 0.42059,-0.19345 0.65704,-0.4299 z m -7.77772,-2.89166 c -0.007,-0.69455 -0.0661,-0.84237 -0.4927,-1.22354 -0.57591,-0.51458 -0.68761,-0.52817 -1.08395,-0.13182 -0.37716,0.37716 -0.38501,0.97993 -0.0216,1.6619 0.3686,0.69179 0.88847,0.96615 1.30261,0.68746 0.24104,-0.16221 0.30162,-0.36586 0.29568,-0.994 z m 11.73881,0.78474 c 0.14593,-0.12537 0.34153,-0.4823 0.43467,-0.79318 0.45708,-1.52558 -0.72605,-2.17742 -1.53728,-0.84697 -0.78503,1.28747 0.0563,2.53899 1.10261,1.64015 z m -5.69175,-4.01826 c 0.60418,-0.25245 0.68334,-0.64579 0.21524,-1.06941 -0.44731,-0.40481 -1.70746,-0.38447 -2.12625,0.0343 -0.81483,0.81484 0.60177,1.58213 1.91101,1.03509 z m 8.51923,3.00384 v -3.70211 l -0.6009,-0.62536 c -0.33049,-0.34395 -0.57865,-0.64762 -0.55144,-0.67482 0.0272,-0.0272 1.62696,0.39778 3.55502,0.94439 1.92806,0.54663 3.60694,0.95495 3.73083,0.90741 0.1239,-0.0476 0.20253,-0.20546 0.17472,-0.35092 -0.0395,-0.20677 -0.9036,-0.51134 -3.96042,-1.39599 l -3.90986,-1.13152 -0.9466,-3.39454 c -0.52063,-1.867 -1.02052,-3.64913 -1.11088,-3.9603 -0.16752,-0.57686 -0.6368,-0.79137 -0.80012,-0.36574 -0.0422,0.11 0.39129,1.85819 0.96335,3.88486 0.9878,3.49956 1.15026,4.2129 0.95948,4.2129 -0.0456,0 -0.28323,-0.10358 -0.52804,-0.23018 -0.34482,-0.17831 -0.44511,-0.33352 -0.44511,-0.68883 0,-1.03083 -0.69079,-1.37514 -1.35036,-0.67306 l -0.34687,0.36922 -1.30127,-0.65747 c -0.71569,-0.36161 -1.3867,-0.79932 -1.49112,-0.9727 -0.22235,-0.36916 -0.61445,-0.40498 -1.02597,-0.0937 -0.16107,0.12183 -0.54303,0.22367 -0.8488,0.2263 -0.30576,0.003 -0.73008,0.071 -0.94292,0.15193 -0.30864,0.11735 -0.38699,0.10139 -0.38699,-0.0788 0,-0.27877 0.65426,-0.99313 3.53669,-3.86155 2.24661,-2.23569 2.68487,-2.53996 3.66197,-2.54242 0.56774,-0.001 7.1507,2.39009 7.67064,2.78666 0.26988,0.20586 0.62608,0.59638 0.79155,0.86783 0.4506,0.73919 2.59425,6.92355 2.59425,7.48431 0,0.26781 -0.10439,0.73934 -0.23198,1.04785 -0.28516,0.68951 -5.02797,5.50779 -5.83447,5.92732 -1.07063,0.55691 -1.02438,0.71094 -1.02438,-3.41095 z m 3.27157,-1.13574 c 1.38158,-0.52346 1.4688,-1.80037 0.12298,-1.80037 -0.75843,0 -1.73499,0.73239 -1.73499,1.30119 0,0.59234 0.75174,0.82513 1.61201,0.49918 z m -1.08521,-6.4734 c 0.13673,-0.43081 -0.35175,-1.35132 -0.8919,-1.6807 -1.36376,-0.83162 -1.95392,0.34031 -0.74537,1.48013 0.63254,0.59655 1.47869,0.70021 1.63727,0.20057 z m -7.25387,-2.12763 c 0.41971,-0.49879 0.52393,-1.30343 0.20954,-1.61781 -0.7099,-0.7099 -2.13519,0.83513 -1.63411,1.7714 0.25839,0.48282 0.95199,0.40804 1.42457,-0.15359 z"
       id="path86-8"
       sodipodi:nodetypes="csscccssssssssscccscsssscsssscssccsssssssssssssssssssssssssssssssscsscsccsssssssssscsssssscsssssssscssssssssssssssssssssssssss" />
  </g>
</svg>
