<?xml version="1.0" encoding="UTF-8" standalone="no"?>
<svg
   xmlns:dc="http://purl.org/dc/elements/1.1/"
   xmlns:cc="http://creativecommons.org/ns#"
   xmlns:rdf="http://www.w3.org/1999/02/22-rdf-syntax-ns#"
   xmlns:svg="http://www.w3.org/2000/svg"
   xmlns="http://www.w3.org/2000/svg"
   xmlns:sodipodi="http://sodipodi.sourceforge.net/DTD/sodipodi-0.dtd"
   xmlns:inkscape="http://www.inkscape.org/namespaces/inkscape"
   width="100mm"
   height="100mm"
   viewBox="0 0 100 100"
   version="1.1"
   id="svg8"
   inkscape:version="1.0.2 (e86c870879, 2021-01-15)"
   sodipodi:docname="logo_extendido.svg"
   inkscape:export-filename="C:\Users\Renato\Desktop\logo.png"
   inkscape:export-xdpi="96"
   inkscape:export-ydpi="96">
  <defs
     id="defs2" />
  <sodipodi:namedview
     id="base"
     pagecolor="#ffffff"
     bordercolor="#666666"
     borderopacity="1.0"
     inkscape:pageopacity="0.0"
     inkscape:pageshadow="2"
     inkscape:zoom="0.64523495"
     inkscape:cx="650.91366"
     inkscape:cy="206.6063"
     inkscape:document-units="mm"
     inkscape:current-layer="layer1"
     inkscape:document-rotation="0"
     showgrid="false"
     inkscape:window-width="1366"
     inkscape:window-height="705"
     inkscape:window-x="-8"
     inkscape:window-y="-8"
     inkscape:window-maximized="1" />
  <metadata
     id="metadata5">
    <rdf:RDF>
      <cc:Work
         rdf:about="">
        <dc:format>image/svg+xml</dc:format>
        <dc:type
           rdf:resource="http://purl.org/dc/dcmitype/StillImage" />
        <dc:title></dc:title>
      </cc:Work>
    </rdf:RDF>
  </metadata>
  <g
     inkscape:label="Layer 1"
     inkscape:groupmode="layer"
     id="layer1">
    <path
       style="fill:#008000;stroke-width:0.178263"
       d="m 44.431559,59.18933 c -0.18303,-0.05258 -2.09153,-1.097501 -4.24114,-2.321903 -3.28845,-1.873079 -3.98493,-2.341825 -4.3912,-2.955302 l -0.48286,-0.729118 -0.0563,-4.559252 c -0.0346,-2.806034 0.015,-4.801134 0.12902,-5.188244 0.30601,-1.038646 1.17843,-1.646334 5.00779,-3.488184 3.623,-1.742585 3.66589,-1.75771 4.99139,-1.758774 1.32666,-0.0012 1.36514,0.01241 4.99138,1.754189 2.00992,0.965376 3.88216,1.966826 4.16055,2.225439 0.98767,0.917546 1.0091,1.046728 1.0091,6.083765 0,4.211996 -0.0319,4.7132 -0.33757,5.312192 -0.18565,0.363761 -0.48647,0.795381 -0.66848,0.959148 -0.18201,0.163767 -2.04967,1.274018 -4.15036,2.467226 -3.2607,1.852119 -3.95176,2.178637 -4.72399,2.232009 -0.4975,0.03438 -1.05431,0.0195 -1.23734,-0.0332 z m 1.35081,-0.81918 c 0.0207,-0.02446 0.0808,-2.31935 0.13369,-5.099647 l 0.0962,-5.055069 3.99861,-2.203214 c 2.19924,-1.21177 4.12162,-2.326225 4.27197,-2.476571 0.24182,-0.241823 0.24279,-0.303891 0.008,-0.538221 -0.23434,-0.23432 -0.7649,0.0095 -4.60024,2.115976 l -4.33536,2.380864 -4.28161,-2.394925 c -2.35489,-1.317203 -4.39312,-2.35214 -4.5294,-2.299842 -0.44467,0.170643 -0.26145,0.62814 0.42071,1.050413 0.36767,0.227609 2.29291,1.319131 4.27831,2.425624 l 3.60986,2.011807 v 4.78171 c 0,2.629941 0.0487,4.908598 0.10823,5.063692 0.0888,0.231177 0.68136,0.402612 0.82069,0.237403 z m -1.91817,-3.34533 c -0.008,-0.820667 -0.0781,-0.99534 -0.58218,-1.445725 -0.68911,-0.615733 -0.99172,-0.641574 -1.3598,-0.116148 -0.35136,0.501664 -0.34911,0.84372 0.0119,1.745006 0.35998,0.899657 1.05642,1.333393 1.58276,0.985736 0.28348,-0.187234 0.35473,-0.426752 0.3477,-1.168916 z m 4.64818,0.783366 c 0.56558,-0.610251 0.75277,-1.596318 0.41672,-2.195014 -0.35565,-0.633634 -0.74478,-0.650437 -1.40486,-0.06062 -0.43959,0.392793 -0.58788,0.694557 -0.66128,1.345845 -0.10859,0.963261 0.12705,1.377193 0.78393,1.377193 0.2378,0 0.62727,-0.21031 0.86549,-0.467363 z m -9.399,-2.242241 c 0.11769,-0.117686 0.21392,-0.522731 0.21392,-0.900177 0,-1.630558 -1.36452,-2.720238 -2.06592,-1.649783 -0.7754,1.183437 0.90492,3.497034 1.852,2.54996 z m 13.88687,-0.187175 c 0.82894,-0.910089 0.98544,-1.784602 0.43996,-2.458245 -0.92496,-1.142271 -2.55167,1.122077 -1.80644,2.514536 0.24809,0.463558 0.91814,0.435958 1.36648,-0.05624 z m -9.31822,-2.374732 c 0.75654,-0.756543 -0.0209,-2.789572 -1.10723,-2.895348 -0.48808,-0.0475 -0.60214,0.01878 -0.76374,0.443803 -0.27069,0.711951 -0.0444,1.633136 0.54612,2.223713 0.57466,0.574663 0.91883,0.633848 1.32485,0.227832 z m 4.73733,-0.227832 c 0.5935,-0.593532 0.84786,-1.637838 0.55529,-2.279958 -0.30561,-0.67077 -1.21437,-0.528744 -1.75349,0.274034 -0.68704,1.023038 -0.43686,2.513886 0.42185,2.513886 0.1476,0 0.49696,-0.228577 0.77635,-0.507962 z m -9.19001,-3.416733 c -0.008,-0.820668 -0.0781,-0.995329 -0.58218,-1.445713 -0.68048,-0.608018 -0.81247,-0.624075 -1.28076,-0.155756 -0.44566,0.445646 -0.45492,1.157868 -0.0255,1.963672 0.43554,0.817406 1.04981,1.141585 1.53914,0.81229 0.28481,-0.191665 0.35639,-0.432294 0.34938,-1.174493 z m 13.87035,0.927235 c 0.17244,-0.148135 0.40355,-0.569877 0.5136,-0.937207 0.54007,-1.802599 -0.85788,-2.572802 -1.81641,-1.000765 -0.92758,1.521252 0.0665,3.000025 1.30281,1.937972 z m -6.72526,-4.747903 c 0.71389,-0.298291 0.80742,-0.763054 0.25432,-1.263596 -0.52853,-0.478317 -2.0175,-0.454283 -2.51233,0.04052 -0.9628,0.962799 0.71103,1.869416 2.25801,1.223043 z m 10.06616,3.549282 v -4.374346 l -0.71001,-0.738915 c -0.3905,-0.406404 -0.68372,-0.765215 -0.65156,-0.797355 0.0321,-0.03214 1.92237,0.47001 4.20054,1.115875 2.27816,0.645889 4.26189,1.128352 4.40828,1.072178 0.1464,-0.05624 0.23931,-0.242767 0.20645,-0.414639 -0.0467,-0.244316 -1.06768,-0.60419 -4.67956,-1.649477 l -4.61982,-1.336983 -1.11849,-4.010928 c -0.61517,-2.206014 -1.20583,-4.311746 -1.3126,-4.679419 -0.19793,-0.681608 -0.75243,-0.935068 -0.9454,-0.432151 -0.0498,0.129973 0.46235,2.195602 1.13828,4.590279 1.16715,4.135018 1.35912,4.977887 1.1337,4.977887 -0.0539,0 -0.33466,-0.122387 -0.62392,-0.271977 -0.40744,-0.210687 -0.52594,-0.394081 -0.52594,-0.813908 0,-1.21801 -0.81622,-1.624842 -1.59556,-0.795276 l -0.40985,0.436264 -1.53756,-0.776854 c -0.84565,-0.427273 -1.63851,-0.944463 -1.76189,-1.149326 -0.26272,-0.436192 -0.72601,-0.478517 -1.21226,-0.110714 -0.19032,0.143952 -0.64163,0.264284 -1.00292,0.267392 -0.36129,0.0036 -0.86266,0.08389 -1.11414,0.179518 -0.36468,0.138659 -0.45726,0.1198 -0.45726,-0.09311 0,-0.329389 0.77306,-1.173464 4.17889,-4.562738 2.65455,-2.641651 3.17239,-3.001171 4.32691,-3.004076 0.67083,-0.0012 8.44914,2.824086 9.06349,3.292666 0.3189,0.24324 0.73977,0.704672 0.93529,1.025412 0.53242,0.873413 3.06532,8.180742 3.06532,8.843325 0,0.316441 -0.12335,0.873593 -0.27411,1.238121 -0.33694,0.814714 -5.94096,6.507906 -6.8939,7.003614 -1.26504,0.658035 -1.2104,0.840034 -1.2104,-4.030316 z m 3.86564,-1.34197 c 1.63244,-0.618511 1.73551,-2.127284 0.1453,-2.127284 -0.89614,0 -2.05003,0.865378 -2.05003,1.537462 0,0.699898 0.88825,0.974959 1.90473,0.589822 z m -1.28227,-7.648853 c 0.16156,-0.509036 -0.41562,-1.596694 -1.05385,-1.985884 -1.6114,-0.982628 -2.30872,0.402104 -0.88072,1.748896 0.7474,0.704871 1.74719,0.827353 1.93457,0.236988 z m -8.57105,-2.513968 c 0.49594,-0.589362 0.61908,-1.54011 0.24759,-1.911576 -0.8388,-0.838804 -2.5229,0.986775 -1.93083,2.093055 0.30531,0.57049 1.12485,0.482133 1.68324,-0.181479 z"
       id="path86-8-5"
       sodipodi:nodetypes="csscccssssssssscccscsssscsssscssccsssssssssssssssssssssssssssssssscsscsccsssssssssscsssssscsssssssscssssssssssssssssssssssssss" />
    <path
       style="fill:#008000;stroke-width:0.198625"
       d="m 5.9745035,80.696977 c -2.01349,-1.22764 -1.9301,-4.22972 0.15146,-5.45253 l 0.69451,-0.40799 H 50.021443 c 40.62621,0 43.23852,0.0206 43.83086,0.3446 1.51773,0.83034 2.09249,2.91133 1.21572,4.40173 -0.25037,0.4256 -0.76667,0.93954 -1.14731,1.14209 -0.66786,0.35538 -2.20842,0.36825 -43.99548,0.36753 -42.8595695,-7.5e-4 -43.3100195,-0.005 -43.9507295,-0.39543 z M 38.799133,69.752917 c -6.4922,-0.84353 -12.3694,-5.530257 -14.53457,-11.590478 -0.15818,-0.442747 -2.17043,-7.776739 -4.47167,-16.297759 -4.67459,-17.30907 -4.65464,-17.204502 -3.66678,-19.223636 0.69921,-1.429117 2.05638,-2.638473 3.39898,-3.02878 0.88855,-0.258306 4.88093,-0.289883 30.90353,-0.244428 l 29.88316,0.0522 0.81764,0.437412 c 1.33103,0.712068 2.00307,1.392784 2.64678,2.680962 0.49768,0.995934 0.6074,1.458073 0.6074,2.558206 v 1.342689 l 1.04278,0.338356 c 8.00943,2.598863 12.17443,11.553282 9.00354,19.356884 -1.54467,3.801475 -4.96935,6.960142 -8.99796,8.29907 -1.37947,0.45847 -1.93246,0.522233 -5.16355,0.595387 l -3.61865,0.08193 -0.52286,1.714204 c -1.26357,4.142606 -3.78219,7.659002 -7.1409,9.969858 -1.39584,0.960367 -4.01517,2.123703 -5.87644,2.609943 -1.6031,0.4188 -2.07553,0.43732 -12.29361,0.48209 -5.84455,0.0256 -11.25212,-0.0348 -12.01682,-0.13411 z m 23.65179,-6.784529 c 2.96891,-1.002301 5.49873,-3.229247 6.82532,-6.008195 0.55239,-1.157143 8.69296,-31.010819 8.50685,-31.196927 -0.0483,-0.04835 -12.59994,-0.06527 -27.89241,-0.03757 l -27.80449,0.05035 4.0206,14.996201 c 3.19145,11.903621 4.17469,15.303409 4.76781,16.485888 1.03157,2.056557 3.07404,4.075834 5.11617,5.058059 2.62632,1.263211 2.83167,1.28079 14.42793,1.23501 l 10.42782,-0.04116 z m 21.779,-14.888208 c 2.2697,-1.054427 3.81395,-2.794262 4.53421,-5.108475 1.20011,-3.855941 -0.57612,-7.873326 -4.27561,-9.670419 -1.30314,-0.633016 -1.89255,-0.809807 -1.89255,-0.567653 0,0.05777 -0.9385,3.59419 -2.08556,7.858726 -1.14706,4.264534 -2.08557,7.846632 -2.08557,7.960215 0,0.135491 0.80267,0.180632 2.33385,0.131258 2.01445,-0.06496 2.48951,-0.147573 3.47123,-0.603652 z"
       id="path124"
       sodipodi:nodetypes="cscscsssccssssscssscsssscsssscsssscsssscsssssssss" />
  </g>
</svg>
