<?xml version="1.0" encoding="UTF-8" standalone="no"?>
<svg
   xmlns:dc="http://purl.org/dc/elements/1.1/"
   xmlns:cc="http://creativecommons.org/ns#"
   xmlns:rdf="http://www.w3.org/1999/02/22-rdf-syntax-ns#"
   xmlns:svg="http://www.w3.org/2000/svg"
   xmlns="http://www.w3.org/2000/svg"
   xmlns:sodipodi="http://sodipodi.sourceforge.net/DTD/sodipodi-0.dtd"
   xmlns:inkscape="http://www.inkscape.org/namespaces/inkscape"
   width="100mm"
   height="100mm"
   viewBox="0 0 100 100"
   version="1.1"
   id="svg8"
   inkscape:version="1.0.2 (e86c870879, 2021-01-15)"
   sodipodi:docname="logo_extendido.svg"
   inkscape:export-filename="C:\Users\Renato\Documents\xicaras\sobre\logo\logo2.png"
   inkscape:export-xdpi="96"
   inkscape:export-ydpi="96">
  <defs
     id="defs2" />
  <sodipodi:namedview
     id="base"
     pagecolor="#ffffff"
     bordercolor="#666666"
     borderopacity="1.0"
     inkscape:pageopacity="0.0"
     inkscape:pageshadow="2"
     inkscape:zoom="0.64523495"
     inkscape:cx="312.27732"
     inkscape:cy="206.6063"
     inkscape:document-units="mm"
     inkscape:current-layer="layer1"
     inkscape:document-rotation="0"
     showgrid="false"
     inkscape:window-width="1366"
     inkscape:window-height="705"
     inkscape:window-x="-8"
     inkscape:window-y="-8"
     inkscape:window-maximized="1" />
  <metadata
     id="metadata5">
    <rdf:RDF>
      <cc:Work
         rdf:about="">
        <dc:format>image/svg+xml</dc:format>
        <dc:type
           rdf:resource="http://purl.org/dc/dcmitype/StillImage" />
        <dc:title />
      </cc:Work>
    </rdf:RDF>
  </metadata>
  <g
     inkscape:label="Layer 1"
     inkscape:groupmode="layer"
     id="layer1">
    <path
       style="fill:#008000;stroke-width:0.122365"
       d="M 46.17914,56.377278 C 46.053502,56.341188 44.74345,55.62392 43.267893,54.783453 41.010601,53.497715 40.532516,53.175954 40.25364,52.754844 l -0.33145,-0.500489 -0.03865,-3.129608 c -0.02375,-1.926146 0.01027,-3.295644 0.08856,-3.561368 0.210055,-0.712958 0.808909,-1.130094 3.437499,-2.394395 2.486936,-1.196164 2.516377,-1.206545 3.42624,-1.207276 0.910661,-8.23e-4 0.937074,0.0086 3.426235,1.204129 1.37967,0.662663 2.664833,1.350088 2.855928,1.527609 0.677967,0.62983 0.692676,0.718506 0.692676,4.176079 0,2.891242 -0.0219,3.235284 -0.231718,3.646451 -0.127436,0.249696 -0.333928,0.545973 -0.458865,0.658387 -0.124937,0.112415 -1.406955,0.874525 -2.848933,1.69358 -2.238243,1.27135 -2.712608,1.495482 -3.24269,1.532118 -0.341499,0.0236 -0.72371,0.01339 -0.849347,-0.02279 z m 0.927237,-0.562311 c 0.01421,-0.01679 0.05546,-1.592071 0.09176,-3.500551 l 0.06604,-3.469953 2.744767,-1.512352 c 1.509625,-0.831797 2.829204,-1.596792 2.93241,-1.699994 0.165993,-0.165995 0.166658,-0.2086 0.0055,-0.369451 -0.160859,-0.160845 -0.525051,0.0065 -3.157745,1.452469 l -2.975921,1.634298 -2.939027,-1.64395 c -1.616469,-0.904168 -3.015571,-1.614579 -3.109118,-1.578681 -0.305234,0.117135 -0.179467,0.431175 0.288788,0.721036 0.25238,0.156237 1.573923,0.905491 2.936761,1.665021 l 2.477918,1.380966 v 3.28231 c 0,1.805271 0.03343,3.369411 0.07429,3.475872 0.06095,0.158687 0.467705,0.276365 0.563346,0.16296 z m -1.316691,-2.296335 c -0.0055,-0.563331 -0.05361,-0.683231 -0.399625,-0.992389 -0.473026,-0.422658 -0.680747,-0.440397 -0.933408,-0.07973 -0.241184,0.344357 -0.23964,0.579156 0.0081,1.197825 0.247101,0.617552 0.725158,0.915282 1.086454,0.676639 0.19459,-0.128522 0.243498,-0.292936 0.238672,-0.80238 z m 3.190653,0.537726 c 0.38823,-0.418894 0.516724,-1.095761 0.286048,-1.506724 -0.244128,-0.434946 -0.511239,-0.446479 -0.964338,-0.04161 -0.301748,0.269626 -0.403538,0.476765 -0.453922,0.923829 -0.07455,0.661211 0.08722,0.945347 0.538112,0.945347 0.163234,0 0.430578,-0.144363 0.5941,-0.320812 z M 42.52858,52.517216 c 0.08078,-0.08078 0.146841,-0.358818 0.146841,-0.617909 0,-1.119264 -0.936648,-1.867254 -1.41811,-1.132461 -0.532258,0.812347 0.621164,2.400471 1.271269,1.75037 z m 9.532368,-0.128483 c 0.56901,-0.624712 0.676436,-1.225004 0.302002,-1.687413 -0.634921,-0.78409 -1.751543,0.770227 -1.239995,1.726053 0.170296,0.318201 0.630239,0.299255 0.937993,-0.0386 z M 45.66464,50.758646 c 0.519312,-0.519315 -0.01435,-1.914848 -0.760037,-1.987455 -0.335032,-0.0326 -0.413327,0.01289 -0.524254,0.304639 -0.185809,0.488706 -0.03048,1.121034 0.374873,1.526424 0.394464,0.394466 0.630714,0.435093 0.909418,0.156392 z m 3.251846,-0.156392 c 0.407397,-0.407418 0.581997,-1.124261 0.381168,-1.565032 -0.20978,-0.460436 -0.83358,-0.362945 -1.203648,0.188106 -0.471605,0.702244 -0.299875,1.725607 0.28957,1.725607 0.101323,0 0.341129,-0.156902 0.53291,-0.348681 z m -6.308301,-2.345349 c -0.0055,-0.563331 -0.05361,-0.683223 -0.399626,-0.992381 -0.467102,-0.417362 -0.557704,-0.428384 -0.879152,-0.10692 -0.305914,0.305905 -0.312271,0.794796 -0.0175,1.347924 0.298967,0.561092 0.72062,0.783619 1.056511,0.557581 0.195503,-0.131564 0.244638,-0.29674 0.239826,-0.806208 z m 9.521029,0.636482 c 0.118368,-0.101686 0.277009,-0.39118 0.35255,-0.643326 0.370721,-1.237359 -0.588875,-1.76605 -1.246838,-0.686956 -0.636719,1.044234 0.04565,2.059308 0.894288,1.330282 z m -4.616423,-3.259104 c 0.490036,-0.204755 0.554238,-0.523783 0.174573,-0.867371 -0.362798,-0.32833 -1.384873,-0.311833 -1.724539,0.02782 -0.660895,0.660894 0.488072,1.283224 1.549966,0.839534 z m 6.909718,2.436335 V 45.067934 L 53.935137,44.56072 c -0.268052,-0.278967 -0.469326,-0.525266 -0.447251,-0.547328 0.02204,-0.02206 1.319573,0.322629 2.883377,0.765971 1.563798,0.443357 2.925491,0.774534 3.025977,0.735975 0.100488,-0.0386 0.16427,-0.166643 0.141714,-0.284621 -0.03205,-0.167706 -0.732888,-0.414735 -3.212192,-1.132251 l -3.171184,-0.917745 -0.767766,-2.753223 c -0.42227,-1.514275 -0.827717,-2.959713 -0.901007,-3.212095 -0.135866,-0.467877 -0.516491,-0.641859 -0.648952,-0.296642 -0.03419,0.08922 0.317371,1.507128 0.78135,3.150907 0.801167,2.838401 0.932941,3.416972 0.778206,3.416972 -0.037,0 -0.229721,-0.08401 -0.428278,-0.186693 -0.279679,-0.144621 -0.361021,-0.270509 -0.361021,-0.55869 0,-0.83608 -0.560279,-1.115342 -1.09524,-0.545902 l -0.281334,0.299464 -1.055427,-0.533256 c -0.580481,-0.293293 -1.124724,-0.648307 -1.209415,-0.788931 -0.180339,-0.299417 -0.498355,-0.328469 -0.832133,-0.076 -0.130641,0.09881 -0.440434,0.181412 -0.688434,0.183546 -0.248,0.0025 -0.592156,0.05758 -0.76478,0.123226 -0.250327,0.09518 -0.313877,0.08224 -0.313877,-0.06392 0,-0.226103 0.530652,-0.805501 2.868517,-3.132002 1.822164,-1.813308 2.177625,-2.060094 2.970122,-2.062088 0.460478,-8.24e-4 5.799745,1.938538 6.221454,2.260186 0.218903,0.166967 0.507801,0.483708 0.642011,0.703873 0.36547,0.599538 2.104129,5.615509 2.104129,6.070327 0,0.217215 -0.08467,0.59966 -0.188158,0.849884 -0.231285,0.559243 -4.078054,4.467223 -4.732181,4.807493 -0.868362,0.451694 -0.830855,0.576624 -0.830855,-2.766532 z m 2.653492,-0.921169 c 1.120557,-0.424565 1.191307,-1.460232 0.09974,-1.460232 -0.615138,0 -1.407204,0.594022 -1.407204,1.05536 0,0.480431 0.609723,0.669241 1.307464,0.404872 z m -0.880189,-5.250405 c 0.1109,-0.349417 -0.285294,-1.096018 -0.723394,-1.363171 -1.106115,-0.674505 -1.584776,0.276017 -0.604553,1.200495 0.513038,0.483846 1.199324,0.567921 1.327947,0.162676 z m -5.883429,-1.725663 c 0.340429,-0.404556 0.424956,-1.057179 0.169954,-1.312164 -0.575777,-0.57578 -1.731795,0.677352 -1.32538,1.436737 0.209573,0.391601 0.772131,0.33095 1.155426,-0.124573 z"
       id="path86-8-5"
       sodipodi:nodetypes="csscccssssssssscccscsssscsssscssccsssssssssssssssssssssssssssssssscsscsccsssssssssscsssssscsssssssscssssssssssssssssssssssssss" />
    <path
       style="fill:#008000;stroke-width:0.136342"
       d="m 19.781052,71.140778 c -1.38212,-0.842689 -1.324879,-2.903407 0.103966,-3.742781 l 0.476734,-0.280057 h 29.654454 c 27.887061,0 29.680229,0.01414 30.08683,0.236544 1.041816,0.56997 1.436348,1.998425 0.834507,3.021481 -0.171862,0.292144 -0.526266,0.644928 -0.787549,0.783964 -0.458439,0.243944 -1.515926,0.252778 -30.19983,0.252284 -29.420107,-5.15e-4 -29.729309,-0.0034 -30.169112,-0.271435 z m 22.53182,-7.512334 c -4.456443,-0.579025 -8.490731,-3.796136 -9.976969,-7.956055 -0.10858,-0.303916 -1.489849,-5.33819 -3.069489,-11.187276 -3.208781,-11.881469 -3.195087,-11.809692 -2.516989,-13.195687 0.479958,-0.980989 1.411561,-1.811127 2.333162,-2.079045 0.609928,-0.17731 3.350418,-0.198985 21.213119,-0.167783 l 20.512707,0.03583 0.561253,0.300254 c 0.913659,0.488784 1.374968,0.956049 1.81683,1.840293 0.341622,0.683639 0.416937,1.000866 0.416937,1.75603 v 0.921662 l 0.715796,0.232258 c 5.497916,1.783939 8.356897,7.930523 6.180302,13.287152 -1.060308,2.609447 -3.411112,4.777652 -6.176472,5.696733 -0.94691,0.314708 -1.326499,0.358477 -3.544417,0.408692 l -2.483951,0.05624 -0.358907,1.176681 c -0.867352,2.843611 -2.59621,5.257372 -4.90173,6.843613 -0.958147,0.659225 -2.756134,1.457774 -4.033767,1.791544 -1.100416,0.287477 -1.424707,0.30019 -8.438706,0.330922 -4.011876,0.01757 -7.723796,-0.02389 -8.248709,-0.09205 z m 16.235305,-4.657106 c 2.037949,-0.688011 3.774495,-2.216653 4.685107,-4.124208 0.379177,-0.794297 5.96711,-21.286765 5.83936,-21.414516 -0.03316,-0.03319 -8.648982,-0.0448 -19.146197,-0.02579 l -19.085843,0.03456 2.759861,10.293847 c 2.190708,8.171005 2.865634,10.504723 3.272769,11.316413 0.708101,1.411682 2.110115,2.797776 3.511895,3.472004 1.802786,0.867107 1.943744,0.879173 9.903768,0.847749 l 7.157971,-0.02825 z M 73.497943,48.751621 c 1.55799,-0.723791 2.61801,-1.918067 3.112418,-3.506613 0.823793,-2.646834 -0.395465,-5.404488 -2.934907,-6.638068 -0.894516,-0.434521 -1.299104,-0.555876 -1.299104,-0.389654 0,0.03965 -0.644215,2.46716 -1.431592,5.394468 -0.787377,2.927304 -1.431598,5.386166 -1.431598,5.464132 0,0.09301 0.550977,0.123992 1.602025,0.0901 1.38278,-0.04459 1.708875,-0.101301 2.382758,-0.414364 z"
       id="path124"
       sodipodi:nodetypes="cscscsssccssssscssscsssscsssscsssscsssscsssssssss" />
  </g>
</svg>
